<?xml version="1.0" standalone="no"?>
<!DOCTYPE svg PUBLIC "-//W3C//DTD SVG 20010904//EN"
 "http://www.w3.org/TR/2001/REC-SVG-20010904/DTD/svg10.dtd">
<svg version="1.0" xmlns="http://www.w3.org/2000/svg"
 width="256.000000pt" height="256.000000pt" viewBox="0 0 256.000000 256.000000"
 preserveAspectRatio="xMidYMid meet">
<title>CORE logo</title>
<g transform="translate(0.000000,256.000000) scale(0.100000,-0.100000)"
fill="#008080" stroke="none">
<path d="M1148 2550 c-481 -55 -892 -374 -1061 -825 -219 -581 15 -1232 556
-1548 588 -342 1328 -163 1707 413 180 275 248 633 179 950 -98 454 -453 837
-893 964 -155 45 -341 63 -488 46z m328 -85 c506 -89 907 -493 989 -995 129
-800 -575 -1504 -1375 -1375 -506 83 -912 489 -995 995 -85 527 195 1049 687
1280 93 43 231 86 323 99 99 14 276 12 371 -4z"/>
<path d="M1133 2419 c-664 -86 -1124 -744 -972 -1391 170 -722 948 -1099 1616
-782 247 117 458 341 564 597 239 576 -38 1248 -615 1494 -184 79 -396 108
-593 82z m213 -215 c47 -22 76 -67 81 -123 12 -139 -148 -215 -253 -119 -21
18 -22 18 -100 -6 -357 -114 -566 -498 -468 -861 83 -309 365 -525 683 -525
119 0 203 19 306 70 169 82 309 240 364 413 7 20 16 37 20 37 9 0 115 -31 119
-35 1 -1 -8 -32 -21 -68 -72 -198 -238 -377 -438 -472 -117 -55 -215 -77 -349
-77 -229 0 -427 82 -589 244 -331 330 -337 848 -13 1181 119 122 268 207 422
241 17 3 32 18 43 40 31 65 122 93 193 60z m272 -157 c31 -13 79 -37 106 -54
46 -29 50 -30 78 -15 79 39 189 -26 204 -120 8 -49 -26 -120 -70 -148 -92 -56
-226 13 -226 117 0 36 -18 52 -117 101 -45 23 -60 36 -58 49 2 10 7 35 10 56
3 20 8 37 11 37 2 0 30 -11 62 -23z m-209 -242 c84 -20 172 -65 239 -122 l54
-46 -63 -63 -63 -64 -41 39 c-80 78 -198 113 -307 91 -80 -15 -129 -41 -190
-98 -156 -145 -153 -384 6 -530 47 -42 140 -92 174 -92 4 0 45 -38 91 -84 84
-84 84 -85 57 -92 -46 -11 -187 3 -251 25 -240 85 -395 340 -357 589 47 308
352 517 651 447z m698 -227 l72 -73 -331 -338 -331 -339 -179 179 c-98 98
-178 182 -178 188 0 13 122 135 135 135 5 0 57 -47 115 -104 l105 -104 255
263 c140 145 257 264 260 265 3 0 38 -33 77 -72z"/>
</g>
</svg>
